<svg width="159" height="159" viewBox="0 0 159 159" fill="none" xmlns="http://www.w3.org/2000/svg">
<g clip-path="url(#clip0_1_2)">
<rect width="159" height="159" fill="white"/>
<circle cx="79.5" cy="79.5" r="79.5" fill="#88EE22"/>
<path fill-rule="evenodd" clip-rule="evenodd" d="M79.1382 74.2961C71.0603 74.2961 63.2379 77.141 57.0311 82.3361C55.5653 83.563 53.3872 83.3635 52.1663 81.8905C50.9453 80.4175 51.1439 78.2287 52.6097 77.0018C60.0579 70.7677 69.4447 67.3538 79.1382 67.3538C88.8316 67.3538 98.2185 70.7677 105.667 77.0018C107.132 78.2287 107.331 80.4175 106.11 81.8905C104.889 83.3635 102.711 83.563 101.245 82.3361C95.0384 77.141 87.216 74.2961 79.1382 74.2961Z" fill="white"/>
<path fill-rule="evenodd" clip-rule="evenodd" d="M79 56.9423C66.3844 56.9423 54.2022 61.5675 44.7384 69.9504C43.3073 71.218 41.1245 71.0798 39.863 69.6417C38.6015 68.2036 38.7391 66.0102 40.1702 64.7425C50.8958 55.2419 64.7023 50 79 50C93.2977 50 107.104 55.2419 117.83 64.7425C119.261 66.0102 119.398 68.2036 118.137 69.6417C116.875 71.0798 114.693 71.218 113.262 69.9504C103.798 61.5675 91.6156 56.9423 79 56.9423Z" fill="white"/>
<path fill-rule="evenodd" clip-rule="evenodd" d="M79.0173 91.6487C75.4326 91.6487 71.9367 92.7696 69.0144 94.8559C67.4592 95.9662 65.3028 95.5993 64.1979 94.0365C63.093 92.4737 63.4581 90.3068 65.0133 89.1965C69.1045 86.2757 73.9987 84.7065 79.0173 84.7065C84.0359 84.7065 88.9301 86.2757 93.0213 89.1965C94.5765 90.3068 94.9415 92.4737 93.8366 94.0365C92.7317 95.5993 90.5753 95.9662 89.0201 94.8559C86.0979 92.7696 82.602 91.6487 79.0173 91.6487Z" fill="white"/>
<path fill-rule="evenodd" clip-rule="evenodd" d="M75.5458 105.529C75.5458 103.612 77.0923 102.058 79 102.058H79.0345C80.9423 102.058 82.4888 103.612 82.4888 105.529C82.4888 107.446 80.9423 109 79.0345 109H79C77.0923 109 75.5458 107.446 75.5458 105.529Z" fill="white"/>
</g>
<defs>
<clipPath id="clip0_1_2">
<rect width="159" height="159" fill="white"/>
</clipPath>
</defs>
</svg>
