<svg width="159" height="159" viewBox="0 0 159 159" fill="none" xmlns="http://www.w3.org/2000/svg">
<rect width="159" height="159" fill="white"/>
<mask id="path-1-inside-1_1_14" fill="white">
<path fill-rule="evenodd" clip-rule="evenodd" d="M3.33055 49C1.16396 53.1862 0 57.623 0 62.2172C0 87.6223 35.5934 108.217 79.5 108.217C123.407 108.217 159 87.6223 159 62.2172C159 57.623 157.836 53.1862 155.669 49C134.068 54.1802 107.813 57.2172 79.5 57.2172C51.1869 57.2172 24.9323 54.1802 3.33055 49Z"/>
</mask>
<path fill-rule="evenodd" clip-rule="evenodd" d="M3.33055 49C1.16396 53.1862 0 57.623 0 62.2172C0 87.6223 35.5934 108.217 79.5 108.217C123.407 108.217 159 87.6223 159 62.2172C159 57.623 157.836 53.1862 155.669 49C134.068 54.1802 107.813 57.2172 79.5 57.2172C51.1869 57.2172 24.9323 54.1802 3.33055 49Z" fill="white"/>
<path d="M3.33055 49L5.89566 38.3033L-2.47976 36.2948L-6.4386 43.9439L3.33055 49ZM155.669 49L165.439 43.9439L161.48 36.2948L153.104 38.3033L155.669 49ZM11 62.2172C11 59.5376 11.6675 56.8233 13.0997 54.0561L-6.4386 43.9439C-9.33956 49.5491 -11 55.7085 -11 62.2172H11ZM79.5 97.2172C59.1291 97.2172 41.226 92.4163 28.794 85.223C16.0763 77.8643 11 69.3382 11 62.2172H-11C-11 80.5013 1.7204 94.9751 17.776 104.265C34.1174 113.721 55.9642 119.217 79.5 119.217V97.2172ZM148 62.2172C148 69.3382 142.924 77.8643 130.206 85.223C117.774 92.4163 99.8709 97.2172 79.5 97.2172V119.217C103.036 119.217 124.883 113.721 141.224 104.265C157.28 94.9751 170 80.5013 170 62.2172H148ZM145.9 54.0561C147.333 56.8233 148 59.5376 148 62.2172H170C170 55.7085 168.34 49.5491 165.439 43.9439L145.9 54.0561ZM153.104 38.3033C132.457 43.2546 107.075 46.2172 79.5 46.2172V68.2172C108.551 68.2172 135.678 65.1058 158.235 59.6967L153.104 38.3033ZM79.5 46.2172C51.9249 46.2172 26.5431 43.2546 5.89566 38.3033L0.765437 59.6967C23.3216 65.1058 50.4488 68.2172 79.5 68.2172V46.2172Z" fill="#CECECE" mask="url(#path-1-inside-1_1_14)"/>
<path fill-rule="evenodd" clip-rule="evenodd" d="M62.0223 66.8265C62.0075 67.1215 62 67.4185 62 67.7172C62 77.3822 69.835 85.2172 79.5 85.2172C89.165 85.2172 97 77.3822 97 67.7172C97 67.4185 96.9925 67.1215 96.9777 66.8265C91.2578 67.0842 85.424 67.2172 79.5 67.2172C73.576 67.2172 67.7422 67.0842 62.0223 66.8265Z" fill="black"/>
</svg>
